HIERARCHY
ROOT Hips
{
	OFFSET 0.000000 0.000000 0.000000
	CHANNELS 6 Xposition Yposition Zposition Zrotation Yrotation Xrotation 
	JOINT LHipJoint
	{
		OFFSET 0.000000 0.000000 0.000000
		CHANNELS 3 Zrotation Yrotation Xrotation
		JOINT LeftUpLeg
		{
			OFFSET 1.363060 -1.794630 0.839290
			CHANNELS 3 Zrotation Yrotation Xrotation
			JOINT LeftLeg
			{
				OFFSET 2.448110 -6.726130 0.000000
				CHANNELS 3 Zrotation Yrotation Xrotation
				JOINT LeftFoot
				{
					OFFSET 2.562200 -7.039590 0.000000
					CHANNELS 3 Zrotation Yrotation Xrotation
					JOINT LeftToeBase
					{
						OFFSET 0.157640 -0.433110 2.322550
						CHANNELS 3 Zrotation Yrotation Xrotation
						End Site
						{
							OFFSET 0.000000 0.000000 0.000000
						}
					}
				}
			}
		}
	}
	JOINT RHipJoint
	{
		OFFSET 0.000000 0.000000 0.000000
		CHANNELS 3 Zrotation Yrotation Xrotation
		JOINT RightUpLeg
		{
			OFFSET -1.305520 -1.794630 0.839290
			CHANNELS 3 Zrotation Yrotation Xrotation
			JOINT RightLeg
			{
				OFFSET -2.542530 -6.985550 0.000000
				CHANNELS 3 Zrotation Yrotation Xrotation
				JOINT RightFoot
				{
					OFFSET -2.568260 -7.056230 0.000000
					CHANNELS 3 Zrotation Yrotation Xrotation
					JOINT RightToeBase
					{
						OFFSET -0.164730 -0.452590 2.363150
						CHANNELS 3 Zrotation Yrotation Xrotation
						End Site
						{
							OFFSET 0.000000 0.000000 0.000000
						}
					}
				}
			}
		}
	}
}
MOTION
Frames: 33
Frame Time: 0.008333
10.637301 15.903910 1.566212 152.475540 -86.069486 -100.844000 -8.648988 -0.079734 3.872899 -11.990781 -9.830349 -75.249888 -2.502148 2.030667 41.925282 4.063838 11.210274 -21.816970 -2.324700 -0.000000 -37.810600 8.627724 0.655448 4.919287 2.848588 4.388938 -76.950005 2.742245 -3.243129 41.798904 -1.853533 -1.663624 -18.461546 0.435800 -0.000001 -60.386699
10.622000 15.854381 1.561026 149.697126 -86.105822 -97.436638 -8.605249 -0.066015 4.005541 -11.889566 -10.323140 -76.300851 -2.467018 2.102644 42.643354 4.119738 11.233357 -22.165202 -2.402800 0.000000 -37.672701 8.667935 0.688868 5.034771 2.578631 4.427570 -78.177746 2.682584 -3.384387 42.815216 -1.908455 -1.696400 -18.998486 0.486400 -0.000001 -60.227500
10.606643 15.798959 1.555719 146.690977 -86.129750 -93.792336 -8.558034 -0.052091 4.140809 -11.776496 -10.842810 -77.420066 -2.422585 2.187989 43.485336 4.180211 11.260017 -22.565111 -2.495200 -0.000000 -37.516200 8.713785 0.732549 5.150253 2.284093 4.450102 -79.477034 2.612215 -3.542862 43.966351 -1.965947 -1.723235 -19.598167 0.543800 0.000000 -60.037200
10.591469 15.737262 1.550476 143.563028 -86.141340 -90.024417 -8.509831 -0.040137 4.276101 -11.646814 -11.378923 -78.610442 -2.367719 2.288971 44.465209 4.244257 11.285439 -23.025217 -2.603601 -0.000000 -37.329299 8.761887 0.786207 5.265663 1.967859 4.465668 -80.839737 2.529685 -3.716580 45.251413 -2.028097 -1.751889 -20.263595 0.609199 -0.000000 -59.785000
10.576358 15.668754 1.545447 140.397905 -86.141826 -86.217440 -8.463196 -0.032294 4.410388 -11.495193 -11.924231 -79.875837 -2.301128 2.406782 45.592617 4.311276 11.307200 -23.550978 -2.729000 -0.000001 -37.107101 8.809552 0.848908 5.381841 1.631600 4.482202 -82.261810 2.433271 -3.903762 46.670597 -2.096950 -1.790896 -20.994691 0.683500 -0.000000 -59.460100
10.561338 15.593000 1.540714 137.237924 -86.133500 -82.416624 -8.419738 -0.030421 4.543702 -11.318034 -12.474355 -81.218179 -2.221517 2.541687 46.871986 4.381142 11.325882 -24.144230 -2.872000 -0.000000 -36.848499 8.855041 0.919495 5.500123 1.276906 4.504483 -83.741029 2.321443 -4.102955 48.222699 -2.173985 -1.847644 -21.788158 0.767899 -0.000000 -59.049400
10.546619 15.509870 1.536591 134.216847 -86.126280 -78.761595 -8.384060 -0.040386 4.670630 -11.107345 -13.006310 -82.636917 -2.128052 2.695629 48.311641 4.451344 11.334615 -24.807700 -3.032200 -0.000001 -36.553700 8.892681 0.994040 5.618478 0.917742 4.548613 -85.259464 2.194069 -4.310073 49.893362 -2.261574 -1.932979 -22.639013 0.864101 0.000000 -58.540000
10.531953 15.419040 1.532986 131.260240 -86.119760 -75.177401 -8.354895 -0.061621 4.795613 -10.862773 -13.527792 -84.132857 -2.019362 2.866345 49.903108 4.523382 11.342975 -25.532503 -3.208500 -0.000001 -36.239501 8.924773 1.072243 5.739866 0.551429 4.609273 -86.824773 2.049162 -4.525463 51.685179 -2.359449 -2.051418 -23.534416 0.972400 -0.000000 -57.960500
10.517372 15.320543 1.530173 128.428721 -86.125623 -71.728980 -8.335314 -0.099267 4.913480 -10.579362 -14.017159 -85.697883 -1.894986 3.054159 51.644523 4.595033 11.348442 -26.313325 -3.398900 -0.000000 -35.917000 8.947811 1.150315 5.860869 0.194611 4.696802 -88.416526 1.887767 -4.745554 53.579492 -2.468172 -2.209155 -24.463858 1.094200 0.000000 -57.313700
10.502809 15.214548 1.528061 125.674978 -86.146745 -68.372995 -8.324361 -0.153781 5.025259 -10.257767 -14.471697 -87.326009 -1.754349 3.257203 53.523375 4.666440 11.358037 -27.136877 -3.601100 0.000000 -35.607000 8.963128 1.227147 5.981634 -0.146798 4.809660 -90.030871 1.709760 -4.969389 55.566704 -2.586600 -2.408259 -25.411784 1.230100 -0.000000 -56.634900
10.488095 15.101295 1.526678 122.958907 -86.187785 -65.072743 -8.321491 -0.226149 5.129874 -9.899163 -14.884455 -89.004725 -1.597196 3.473388 55.524643 4.737186 11.377691 -27.989090 -3.812900 0.000001 -35.329601 8.971602 1.301662 6.099866 -0.463449 4.946416 -91.654977 1.516003 -5.195473 57.632109 -2.713025 -2.648954 -26.362625 1.379800 -0.000000 -55.958800
10.473029 14.981241 1.525914 120.231845 -86.250071 -61.782487 -8.325065 -0.315551 5.227156 -9.507885 -15.252104 -90.719892 -1.423753 3.700172 57.629403 4.807136 11.413889 -28.854720 -4.031800 -0.000000 -35.104100 8.975331 1.373714 6.213946 -0.748358 5.102802 -93.278257 1.307765 -5.422782 59.760061 -2.845049 -2.928348 -27.301784 1.542900 0.000000 -55.324800
10.457573 14.855072 1.525617 117.418285 -86.331196 -58.433773 -8.332012 -0.419934 5.315523 -9.092923 -15.575233 -92.450331 -1.234654 3.934444 59.815724 4.876283 11.473442 -29.718974 -4.256600 0.000001 -34.943401 8.977428 1.445292 6.319867 -0.996072 5.268051 -94.885407 1.087030 -5.651143 61.935153 -2.979120 -3.238293 -28.218354 1.717700 -0.000000 -54.764500
10.427017 14.709546 1.544603 100.806926 -86.648166 -40.951908 -8.299265 -0.541674 5.742007 -7.849329 -16.452417 -94.901629 -0.929924 4.070804 62.038322 4.959525 11.602131 -30.316250 -4.407400 0.000000 -35.256700 9.050946 1.404752 6.476276 -0.690272 5.163922 -96.891086 0.940107 -5.993978 64.129554 -3.150914 -3.605970 -29.214236 1.930900 0.000001 -54.149800
10.409469 14.573024 1.544878 97.373046 -86.757704 -37.038940 -8.291973 -0.647328 5.815932 -7.390470 -16.653277 -96.640134 -0.714262 4.310324 64.323567 5.026733 11.713452 -31.146068 -4.638900 0.000000 -35.259700 9.071872 1.493385 6.574131 -0.856547 5.371255 -98.441225 0.694547 -6.222962 66.343952 -3.284414 -3.967651 -30.052482 2.126400 0.000000 -53.846601
10.390918 14.433033 1.544896 93.801607 -86.867721 -33.031494 -8.280928 -0.751052 5.879780 -6.945100 -16.824573 -98.329854 -0.487091 4.548268 66.621265 5.093676 11.859302 -31.947116 -4.875000 0.000000 -35.335500 9.098558 1.594842 6.655673 -0.987266 5.552880 -99.933909 0.443091 -6.452310 68.561907 -3.409970 -4.327250 -30.856254 2.325900 0.000000 -53.680600
10.370927 14.290365 1.544703 90.184829 -86.979571 -29.018147 -8.268713 -0.851180 5.936206 -6.514875 -16.963991 -99.966265 -0.250113 4.783612 68.915007 5.159888 12.035451 -32.718727 -5.115300 0.000000 -35.478600 9.128619 1.706565 6.724812 -1.084843 5.716589 -101.365478 0.187138 -6.679267 70.765004 -3.527708 -4.682114 -31.625571 2.528200 -0.000000 -53.659900
10.349370 14.146136 1.544120 86.649707 -87.082638 -25.130931 -8.256315 -0.945565 5.985028 -6.113490 -17.081686 -101.531115 -0.005919 5.014553 71.186687 5.225008 12.237504 -33.462889 -5.360300 0.000000 -35.676199 9.161077 1.828878 6.780562 -1.155894 5.850571 -102.726432 -0.071530 -6.903435 72.942929 -3.635779 -5.020848 -32.367415 2.730800 -0.000000 -53.775000
10.326205 14.001356 1.543043 83.326961 -87.166866 -21.502570 -8.244983 -1.034202 6.025212 -5.752541 -17.187882 -103.007505 0.242800 5.239486 73.421593 5.288710 12.459784 -34.185341 -5.610900 -0.000000 -35.911000 9.194762 1.960523 6.821662 -1.206472 5.943448 -104.008820 -0.331264 -7.124627 75.087155 -3.732994 -5.333347 -33.091103 2.931300 -0.000000 -54.003300
10.301020 13.856823 1.541496 80.304301 -87.230813 -18.217388 -8.236728 -1.118430 6.059632 -5.432767 -17.286196 -104.393672 0.493978 5.458005 75.610670 5.350285 12.693181 -34.892226 -5.866200 0.000000 -36.177300 9.228265 2.096489 6.852420 -1.241199 5.998339 -105.213191 -0.591556 -7.341298 77.189032 -3.820292 -5.618111 -33.801600 3.128800 0.000000 -54.333200
10.273764 13.713425 1.539444 77.667005 -87.267879 -15.361098 -8.231784 -1.199661 6.088441 -5.160205 -17.384947 -105.680356 0.745249 5.669140 77.744632 5.409248 12.930148 -35.589675 -6.125900 -0.000000 -36.462800 9.261770 2.233568 6.873581 -1.264368 6.008562 -106.336674 -0.851551 -7.553445 79.243667 -3.897336 -5.869183 -34.505041 3.321301 0.000000 -54.739000
10.244691 13.572160 1.536890 75.459597 -87.272967 -12.981365 -8.229247 -1.279725 6.109699 -4.939960 -17.491013 -106.857627 0.994710 5.871952 79.817317 5.465145 13.164826 -36.282650 -6.389800 0.000001 -36.760400 9.295976 2.369851 6.883796 -1.278552 5.968099 -107.374036 -1.110712 -7.761273 81.247953 -3.963733 -6.082304 -35.204657 3.506700 -0.000000 -55.198200
10.213624 13.433659 1.533932 73.644473 -87.250413 -11.036497 -8.229128 -1.359241 6.125510 -4.767141 -17.602437 -107.929177 1.241333 6.066397 81.825107 5.517478 13.391214 -36.972316 -6.655700 0.000000 -37.074600 9.331430 2.502249 6.886406 -1.284058 5.884777 -108.327351 -1.369082 -7.963655 83.197377 -4.020592 -6.260649 -35.896798 3.683800 0.000000 -55.702800
10.180656 13.298615 1.530692 72.117150 -87.208008 -9.418975 -8.231310 -1.438026 6.136858 -4.634638 -17.714382 -108.898985 1.484790 6.252268 83.765458 5.565754 13.605939 -37.656039 -6.921001 0.000000 -37.414100 9.368230 2.629720 6.882570 -1.278278 5.768850 -109.195225 -1.626371 -8.159310 85.087185 -4.068933 -6.408841 -36.574840 3.851800 -0.000001 -56.242000
10.145599 13.167583 1.527087 70.857301 -87.147311 -8.103261 -8.235704 -1.514926 6.147413 -4.538082 -17.827349 -109.774735 1.724539 6.429419 85.633363 5.610260 13.808942 -38.326963 -7.183200 0.000000 -37.792000 9.407152 2.750645 6.877307 -1.266294 5.626968 -109.986109 -1.883379 -8.346955 86.914495 -4.109522 -6.532954 -37.226712 4.009500 -0.000000 -56.831600
10.108686 13.041208 1.523351 69.693977 -87.081538 -6.916130 -8.242990 -1.589294 6.157206 -4.465826 -17.929334 -110.561051 1.960953 6.597527 87.426169 5.650283 14.000220 -38.975773 -7.438700 0.000000 -38.221600 9.446821 2.865628 6.869361 -1.240672 5.474922 -110.693403 -2.138854 -8.524582 88.672172 -4.143634 -6.640622 -37.843202 4.157100 -0.000001 -57.459401
10.069948 12.920077 1.519525 68.533591 -87.018133 -5.760060 -8.253915 -1.660002 6.168626 -4.408120 -18.013400 -111.264617 2.194037 6.756049 89.138574 5.685827 14.182538 -39.591007 -7.684299 -0.000000 -38.715300 9.486328 2.974450 6.860705 -1.200485 5.324942 -111.317829 -2.391984 -8.690184 90.353597 -4.172458 -6.740027 -38.413493 4.295100 0.000001 -58.122100
10.029179 12.804665 1.515456 67.373288 -86.957247 -4.626266 -8.268632 -1.725825 6.184427 -4.360849 -18.080759 -111.889694 2.422846 6.903895 90.762177 5.717449 14.359997 -40.161709 -7.918100 0.000000 -39.278100 9.525737 3.076414 6.854492 -1.150936 5.181563 -111.862974 -2.641970 -8.842145 91.952574 -4.196795 -6.837666 -38.928659 4.424000 0.000000 -58.836500
9.986556 12.695659 1.511168 66.142573 -86.904100 -3.443505 -8.287635 -1.786111 6.205662 -4.316040 -18.126160 -112.437906 2.646507 7.039952 92.289463 5.745214 14.535847 -40.678577 -8.138200 -0.000000 -39.908000 9.563791 3.171671 6.850841 -1.090827 5.053744 -112.324540 -2.886428 -8.978621 93.460375 -4.217979 -6.939643 -39.386257 4.545600 -0.000000 -59.586600
9.941932 12.593622 1.506554 64.840816 -86.858214 -2.207030 -8.311074 -1.840137 6.233855 -4.270005 -18.150207 -112.908761 2.862946 7.162865 93.710792 5.769638 14.712376 -41.137048 -8.343700 0.000001 -40.593000 9.600200 3.259738 6.851169 -1.023738 4.944404 -112.700931 -3.122674 -9.098195 94.868300 -4.237213 -7.049753 -39.788024 4.661500 0.000000 -60.353299
9.895436 12.499338 1.501631 63.443206 -86.819566 -0.893639 -8.338974 -1.887718 6.268677 -4.219746 -18.152878 -113.296182 3.069614 7.271065 95.016870 5.791011 14.890501 -41.536814 -8.534800 -0.000000 -41.312700 9.634121 3.340830 6.854011 -0.949641 4.855731 -112.983382 -3.346878 -9.199722 96.167267 -4.255917 -7.169507 -40.143668 4.774101 -0.000000 -61.103100
9.846991 12.413452 1.496207 62.009145 -86.781892 0.438184 -8.370591 -1.928583 6.310513 -4.167668 -18.141004 -113.594129 3.262946 7.363250 96.198097 5.810223 15.069889 -41.883405 -8.712600 -0.000000 -42.037799 9.666250 3.414294 6.860015 -0.874332 4.782653 -113.168660 -3.555637 -9.282865 97.350020 -4.275291 -7.298326 -40.465396 4.885500 0.000000 -61.809400
9.796575 12.336704 1.490182 60.587108 -86.738740 1.738282 -8.405000 -1.962744 6.358185 -4.118409 -18.121561 -113.790271 3.438808 7.437892 97.245201 5.828016 15.248675 -42.186713 -8.879400 -0.000000 -42.735100 9.697360 3.479831 6.868038 -0.801635 4.718825 -113.249473 -3.745028 -9.347666 98.409496 -4.296430 -7.433294 -40.769757 4.997300 -0.000001 -62.435400
